# xmcd
#
# Track frame offsets: 
#        150
#        11186
#        27476
#        42209
#        62098
#        78631
#        94011
#        113952
#        131838
#        146100
#
# Disc length: 2130 seconds
#
# Revision: 0
# Processed by: cddbd v1.5.2PL0 Copyright (c) Steve Scherf et al.
# Submitted via: ExactAudioCopy v0.99pb5
#
DISCID=8f08500a
DTITLE=ฝน ธนสุนทร - แก้วตาดวงใจ 1
DYEAR=2011
DGENRE=Country
TTITLE0=คนดังลืมหลังควาย
TTITLE1=คอยรักที่สถานี
TTITLE2=อยากฟังซ้ำ
TTITLE3=แก้วรอพี่
TTITLE4=พี่จ๋าหนาวไหม
TTITLE5=หนูไม่ยอม
TTITLE6=มาก่อนคือแฟนเก่า
TTITLE7=สาวเอเอ็ม
TTITLE8=น้องว่างทุกวัน
TTITLE9=แม่พิมพ์ของชาติ
EXTD=
EXTT0=
EXTT1=
EXTT2=
EXTT3=
EXTT4=
EXTT5=
EXTT6=
EXTT7=
EXTT8=
EXTT9=
PLAYORDER=
